# xmcd
#
# Track frame offsets: 
#        150
#        15975
#        32005
#        50337
#        63752
#        80960
#        104304
#        124560
#        152092
#        168967
#        183530
#        203432
#        212905
#        235512
#        255012
#        280662
#        289252
#        304342
#        320655
#
# Disc length: 4482 seconds
#
# Revision: 0
# Processed by: cddbd v1.5.2PL0 Copyright (c) Steve Scherf et al.
# Submitted via: ExactAudioCopy v1.0b3
#
DISCID=f9118013
DTITLE=Polskie Radio - Muzyka Zrodel - 22 - Ballady
DYEAR=2004
DGENRE=Folk
TTITLE0=Niewierna żona 1. Wyjechał starosta z chartami na pole
TTITLE1=Jasio konie poił - Jasio morderca 2. Jasio konie poił
TTITLE2=Jasio konie poił - Jasio morderca 3. Oj w lesie, w lesie pod s
TTITLE2=osnum
TTITLE3=Jasio konie poił - Jasio morderca 4. Jasio z Magdalenkum nocki
TTITLE3=e wędrowały
TTITLE4=Jasio konie poił - Jasio morderca 5. Przyjechał Jasieniek z da
TTITLE4=lekiej krainy
TTITLE5=Dzieciobójczyni 6. Poszła dziwka w las po wodę
TTITLE6=Dzieciobójczyni 7. Tam pod Krakowem na błoniu
TTITLE7=Mąż zabójca żony i brata 8. Cztery mile za Warszawą
TTITLE8=Służył Jasio we dworze 9. Służył Jasio we dworze
TTITLE9=Służył Jasio we dworze 10. Służył Jasio u pana
TTITLE10=Nieszczęśliwa miłość (kwiaty nagrobne) 11. Gdy młodzieniec na
TTITLE10=wojnę chciał jechać
TTITLE11=Powrót męża 12. Wdowa dom buduje
TTITLE12=Podolanka 13. Na podolu biały kamień
TTITLE13=Zemsta braci 14. Pojechał brat na wojenkę
TTITLE14=Porwana siostra 15. Tam w Krakowie na ulicy
TTITLE15=Trójziele 16. Przyjechało trzech andrusów w nocy
TTITLE16=Lilie 17. Stała nam się nowina
TTITLE17=Ojciec i trzy córy 18. Mioł jeden ojciec trzy cery
TTITLE18=Kowalicha 19. Na polskim gościńcu kuźnia murowana
EXTD=
EXTT0=
EXTT1=
EXTT2=
EXTT3=
EXTT4=
EXTT5=
EXTT6=
EXTT7=
EXTT8=
EXTT9=
EXTT10=
EXTT11=
EXTT12=
EXTT13=
EXTT14=
EXTT15=
EXTT16=
EXTT17=
EXTT18=
PLAYORDER=
